<svg height="512pt" viewBox="-6 0 512 512.01381" width="512pt" xmlns="http://www.w3.org/2000/svg"><path d="m203.257812 375.710938c-38.363281-27.550782-61.253906-72.09375-61.253906-119.292969 0-47.195313 22.890625-91.738281 61.253906-119.292969-5.046874-8.5625-10.648437-16.832031-16.789062-24.746094l54.355469-54.351562-21.214844-21.214844-219.6015625 219.605469 219.6015625 219.605469 21.214844-21.210938-54.355469-54.355469c6.140625-7.914062 11.742188-16.183593 16.789062-24.746093zm0 0"/><path d="m172.003906 256.417969c0 35.980469 16.730469 70.023437 44.984375 92.097656 12.308594-28.878906 18.808594-60.167969 18.808594-92.097656 0-31.929688-6.5-63.214844-18.808594-92.09375-28.253906 22.074219-44.984375 56.113281-44.984375 92.09375zm0 0"/><path d="m230.023438 128.59375 40.261718-21.679688 14.222656 26.414063-40.261718 21.679687zm0 0"/><path d="m296.15625 92.988281 40.261719-21.671875 14.21875 26.414063-40.261719 21.671875zm0 0"/><path d="m362.304688 57.382812 40.261718-21.675781 14.21875 26.414063-40.261718 21.675781zm0 0"/><path d="m428.601562 21.675781 40.261719-21.675781 14.21875 26.414062-40.261719 21.675782zm0 0"/><path d="m230.003906 383.378906 14.21875-26.414062 40.261719 21.675781-14.21875 26.410156zm0 0"/><path d="m296.175781 419.019531 14.222657-26.414062 40.261718 21.679687-14.222656 26.414063zm0 0"/><path d="m362.289062 454.605469 14.222657-26.414063 40.261719 21.675782-14.222657 26.414062zm0 0"/><path d="m428.628906 490.335938 14.222656-26.414063 40.261719 21.679687-14.222656 26.414063zm0 0"/><path d="m356.339844 216.246094h-17.078125v-17.074219h-29.996094v17.074219h-17.074219v29.996094h17.074219v17.074218h29.996094v-17.074218h17.078125zm0 0"/><path d="m467.058594 325.917969h-17.074219v-17.074219h-30v17.074219h-17.078125v30h17.078125v17.074219h30v-17.074219h17.074219zm0 0"/><path d="m499.132812 148.578125h-17.074218v-17.074219h-30v17.074219h-17.074219v30h17.074219v17.074219h30v-17.074219h17.074218zm0 0"/></svg>